<?xml version="1.0" encoding="iso-8859-1"?>
<!-- Generator: Adobe Illustrator 19.0.0, SVG Export Plug-In . SVG Version: 6.00 Build 0)  -->
<svg version="1.1" id="Capa_1" xmlns="http://www.w3.org/2000/svg" xmlns:xlink="http://www.w3.org/1999/xlink" x="0px" y="0px"
	 viewBox="0 0 511.998 511.998" style="enable-background:new 0 0 511.998 511.998;" xml:space="preserve">
<g>
	<g>
		<path d="M393.486,174.824l-24.533-34.802V117.57c0-7.402-2.708-14.525-7.625-20.056l-9.468-10.652
			c-6.005-6.756-13.799-11.55-22.538-13.864c-11.501-3.046-23.756,0.972-31.225,10.233l-3.371,4.18l-17.038-9.939
			c-3.851-2.246-8.721-1.673-11.944,1.404l-8.938,8.531c0.013-0.206,0.019-0.412,0.019-0.618V39.22c0-5.523-4.477-10-10-10h-16.313
			l2.211-8.567c1.246-4.827-1.253-9.833-5.859-11.739l-19.705-8.155c-2.531-1.047-5.381-1.01-7.885,0.102l-30.581,13.591
			c-3.479,1.546-5.766,4.926-5.929,8.705l-22.086,0.117c-4.441,0.024-8.335,2.974-9.56,7.244l-16.904,58.951
			c-0.879,3.065-0.243,6.367,1.712,8.886l28.481,36.709v15.603c0,2.896,1.253,5.633,3.411,7.522
			c-1.314,1.721-2.052,3.847-2.052,6.069v11.746h-1.552c-5.523,0-10,4.477-10,10v23.785c0,2.731,1.118,5.344,3.093,7.231
			l31.056,29.664v21.546c0,1.37,0.282,2.726,0.827,3.982l10.273,23.662l-30.265,39.362c-1.344,1.748-2.073,3.891-2.073,6.096v43.215
			l-5.199,8.058c-1.042,1.616-1.597,3.498-1.597,5.421v16.309c0,5.523,4.477,10,10,10h6.649v4.271c0,2.644,1.047,5.181,2.913,7.055
			l11.512,11.566c1.954,1.963,4.521,2.945,7.087,2.945c2.552,0,5.104-0.97,7.055-2.913c3.914-3.896,3.929-10.228,0.033-14.142
			l-8.6-8.64v-10.143c0-5.523-4.477-10-10-10h-6.649v-3.363l5.199-8.058c1.042-1.616,1.597-3.498,1.597-5.421v-42.761l20.895-27.175
			l-12.561,39.405c-0.313,0.982-0.472,2.006-0.472,3.037v23.077c0,3.924,2.295,7.485,5.868,9.106l31.646,14.358l6.629,40.827
			c0.596,3.673,3.183,6.711,6.713,7.886l26.774,8.91l14.182,20.994l-1.764,2.756l-3.379-2.317
			c-3.022-2.073-6.938-2.326-10.203-0.659l-9.477,4.84l-7.344-7.378c-3.896-3.914-10.228-3.929-14.142-0.033
			s-3.929,10.228-0.033,14.142l12.486,12.544c1.922,1.931,4.489,2.946,7.09,2.946c1.545,0,3.103-0.358,4.545-1.094l10.672-5.45
			l6.986,4.791c2.232,1.532,4.99,2.092,7.644,1.553c2.653-0.539,4.975-2.129,6.434-4.41l10.873-16.989
			c2.151-3.362,2.098-7.681-0.136-10.988l-19.765-29.261c-1.234-1.827-3.037-3.195-5.129-3.891l-24.257-8.072l-6.518-40.142
			c-0.536-3.304-2.69-6.121-5.739-7.504l-30.658-13.91v-15.078l19.575-61.405c0.007-0.022,0.01-0.044,0.017-0.065
			c0.055-0.175,0.096-0.355,0.141-0.533c0.037-0.148,0.081-0.296,0.112-0.444c0.025-0.122,0.038-0.247,0.059-0.371
			c0.035-0.208,0.072-0.417,0.093-0.625c0.004-0.043,0.004-0.086,0.007-0.129c0.026-0.29,0.043-0.579,0.043-0.867
			c0-0.001,0-0.002,0-0.003v-34.511h7.182v12.426c0,5.523,4.477,10,10,10h25.656l31.786,29.292c1.894,1.746,4.326,2.647,6.779,2.646
			c1.717,0,3.445-0.441,5.006-1.344c3.79-2.193,5.712-6.596,4.744-10.866l-11.305-49.875v-3.703l15.387-20.516h62.24
			c6.499,0,12.701-2.436,17.463-6.857c5.212-4.839,8.202-11.695,8.202-18.808V189.61
			C398.174,184.289,396.553,179.176,393.486,174.824z M378.174,204.999c-0.001,1.568-0.661,3.08-1.811,4.149
			c-1.052,0.977-2.421,1.514-3.855,1.514h-67.24c-3.147,0-6.111,1.482-8,4l-20.387,27.182c-1.298,1.731-2,3.836-2,6v8.155
			c0,0.744,0.083,1.485,0.248,2.21l4.447,19.623l-11.023-10.159c-1.847-1.702-4.266-2.646-6.777-2.646h-19.561v-12.426
			c0-5.523-4.477-10-10-10h-27.182c-5.523,0-10,4.477-10,10v28.918l-6.671-15.365v-23.746c0-2.731-1.118-5.344-3.093-7.231
			l-31.056-29.664v-9.508h1.552c5.523,0,10-4.477,10-10v-16.506l4.527-3.134c2.658-1.84,4.263-4.853,4.307-8.086
			c0.044-3.233-1.478-6.288-4.085-8.2l-6.107-4.479v-13.96c0-2.22-0.738-4.376-2.099-6.13l-27.47-35.406l13.439-46.871l24.53-0.13
			c5.502-0.029,9.947-4.498,9.947-10v-3.014l20.721-9.209l7.712,3.191l-3.265,12.65c-0.773,2.995-0.117,6.178,1.777,8.623
			c1.894,2.445,4.813,3.876,7.905,3.876h19.221v36.841l-3.972,27.142c-0.618,4.223,1.512,8.373,5.304,10.332
			c3.79,1.958,8.409,1.296,11.496-1.65l24.458-23.345l17.963,10.479c4.271,2.491,9.72,1.489,12.823-2.36l8.768-10.872
			c2.521-3.126,6.661-4.479,10.538-3.454c4.928,1.305,9.322,4.007,12.708,7.817l9.469,10.652c1.659,1.867,2.573,4.271,2.573,6.769
			v25.623c0,2.063,0.638,4.075,1.827,5.762l18.007,25.545h-68.089c-5.523,0-10,4.477-10,10s4.477,10,10,10h77.476V204.999z"/>
	</g>
</g>
<g>
	<g>
		<path d="M209.68,457.329c-1.87-1.86-4.44-2.93-7.08-2.93c-2.63,0-5.21,1.07-7.07,2.93c-1.86,1.86-2.92,4.44-2.92,7.07
			s1.06,5.21,2.92,7.07c1.86,1.86,4.44,2.93,7.07,2.93c2.64,0,5.21-1.07,7.08-2.93c1.86-1.86,2.92-4.44,2.92-7.07
			S211.54,459.189,209.68,457.329z"/>
	</g>
</g>
<g>
	<g>
		<path d="M266.833,174.499h-0.101c-5.523,0-10,4.477-10,10s4.477,10,10,10h0.101c5.523,0,10-4.477,10-10
			S272.356,174.499,266.833,174.499z"/>
	</g>
</g>
<g>
</g>
<g>
</g>
<g>
</g>
<g>
</g>
<g>
</g>
<g>
</g>
<g>
</g>
<g>
</g>
<g>
</g>
<g>
</g>
<g>
</g>
<g>
</g>
<g>
</g>
<g>
</g>
<g>
</g>
</svg>
